<svg width="500" height="500" viewBox="0 0 500 500" fill="none" xmlns="http://www.w3.org/2000/svg">
<rect width="500" height="500" rx="250" fill="#2AC8AC"/>
<g clip-path="url(#clip0_2241_4131)">
<rect x="71" y="82" width="358" height="358" rx="38.3571" fill="#2AC8AC"/>
<path d="M361.875 136.339H138.125C131.064 136.339 125.339 142.064 125.339 149.125V308.946C125.339 351.315 159.686 385.661 202.054 385.661H214.839V347.304C214.839 343.773 217.702 340.911 221.232 340.911H361.875C368.936 340.911 374.661 335.186 374.661 328.125V149.125C374.661 142.064 368.936 136.339 361.875 136.339Z" stroke="white" stroke-width="19.1786" stroke-linecap="round"/>
<path d="M170.089 200.268V200.268C170.089 189.676 178.676 181.089 189.268 181.089V181.089C199.86 181.089 208.446 189.676 208.446 200.268V200.268" stroke="white" stroke-width="19.1786" stroke-linecap="round"/>
<path d="M214.839 276.982L230.173 249.155C232.492 244.947 238.45 244.704 241.102 248.71L257.483 273.448C260.004 277.255 265.588 277.268 268.126 273.473L285.301 247.798C287.824 244.026 293.363 244.011 295.908 247.768L313.337 273.503C315.897 277.284 321.481 277.238 323.98 273.417L340.694 247.855C343.177 244.057 348.717 243.983 351.301 247.714L374.661 281.457" stroke="white" stroke-width="19.1786" stroke-linecap="round"/>
<circle cx="329.911" cy="181.089" r="9.58929" fill="white"/>
</g>
<g clip-path="url(#clip1_2241_4131)">
<rect x="71" y="82" width="358" height="358" rx="38.3571" fill="#2AC8AC"/>
<path d="M361.875 136.339H138.125C131.064 136.339 125.339 142.064 125.339 149.125V308.946C125.339 351.315 159.686 385.661 202.054 385.661H214.839V347.304C214.839 343.773 217.702 340.911 221.232 340.911H361.875C368.936 340.911 374.661 335.186 374.661 328.125V149.125C374.661 142.064 368.936 136.339 361.875 136.339Z" stroke="white" stroke-width="19.1786" stroke-linecap="round"/>
<path d="M170.089 200.268V200.268C170.089 189.676 178.676 181.089 189.268 181.089V181.089C199.86 181.089 208.446 189.676 208.446 200.268V200.268" stroke="white" stroke-width="19.1786" stroke-linecap="round"/>
<path d="M214.839 276.982L230.173 249.155C232.492 244.947 238.45 244.704 241.102 248.71L257.483 273.448C260.004 277.255 265.588 277.268 268.126 273.473L285.301 247.798C287.824 244.026 293.363 244.011 295.908 247.768L313.337 273.503C315.897 277.284 321.481 277.238 323.98 273.417L340.694 247.855C343.177 244.057 348.717 243.983 351.301 247.714L374.661 281.457" stroke="white" stroke-width="19.1786" stroke-linecap="round"/>
<circle cx="329.911" cy="181.089" r="9.58929" fill="white"/>
</g>
<defs>
<clipPath id="clip0_2241_4131">
<rect width="358" height="358" fill="white" transform="translate(71 82)"/>
</clipPath>
<clipPath id="clip1_2241_4131">
<rect width="358" height="358" fill="white" transform="translate(71 82)"/>
</clipPath>
</defs>
</svg>
